<svg viewBox="0 0 228 106" xmlns="http://www.w3.org/2000/svg">
    <g fill="#FFF" fill-rule="evenodd">
        <path d="M15.992 34.47c3.843.224 7.176-1.074 10.002-3.448h.17l-2.94 7.515H0v-.17c2.882-1.017 2.543-5.198 2.543-7.74V9.321c0-2.6.339-6.723-2.543-7.798v-.168h10.793v.168C7.911 2.599 8.307 6.78 8.307 9.322V33.96l7.685.51zM35.418 30.91c0 2.541-.451 6.668 2.374 7.74v.17h-10.68v-.17c2.881-1.017 2.542-5.199 2.542-7.74V9.606c0-2.6.34-6.724-2.543-7.799v-.168h18.084c.96 0 1.92.112 2.655-.283h.17V7.91h-.17c-1.751-1.977-4.068-2.203-6.668-2.203-1.978 0-3.955.056-5.764.394v10.511h6.78c.85 0 1.754 0 2.431-.338h.17v5.99h-.17c-.904-1.696-3.277-1.582-5.029-1.582h-4.182V30.91zM78.92 7.911c-3.107-1.978-6.724-3.22-10.454-3.22-7.798 0-13.223 5.706-13.223 13.9 0 8.306 5.652 15.709 14.353 15.709 4.239 0 8.476-1.526 12.036-3.56h.17l-2.882 6.554c-2.656 1.243-5.595 1.696-8.532 1.696-13.336 0-21.588-7.46-21.588-19.551C48.8 7.74 57.052 0 68.635 0c3.447 0 6.951.622 10.285 1.412v6.5zM100.035 32.774c-1.355 1.808-3.051 4.237.395 5.593v.17H89.467v-.17l15.653-19.664-8.193-11.867c-1.47-2.147-3.051-4.408-5.425-5.48h6.556c1.751 0 2.26.451 2.825 1.355l8.194 11.81 5.594-7.572c1.413-1.921 3.334-4.973-.51-5.425v-.168h10.342L111.676 18.08l9.041 13.45c1.809 2.712 3.56 5.819 6.78 7.006H121c-2.316 0-3.278-1.469-3.673-1.979l-9.436-14.183-7.855 10.399zM145.054 31.589c0 3.22-.056 5.425 2.939 7.175v.17h-11.19v-.17c2.826-1.072 2.487-5.199 2.487-7.74V5.82h-4.972c-2.43 0-4.974.62-6.725 2.26h-.17l1.978-6.725h.17c.677.283 1.412.283 2.147.397h22.49c.96 0 1.865-.059 2.6-.397h.17l-1.81 6.726H155c-.734-1.98-2.995-2.261-4.86-2.261h-5.085v25.768zM173.405 1.356c7.573 0 11.698 3.955 11.698 9.097 0 4.972-4.352 8.87-8.985 9.946l8.137 10.227c2.374 2.938 5.932 5.877 9.154 7.911h-5.198c-2.996 0-4.86-.734-6.556-2.825l-6.894-8.533-5.199-7.968c4.521-.676 9.777-2.768 9.777-8.08 0-4.069-3.504-6.442-7.29-6.273-1.3.056-2.542.227-3.842.453v25.315c0 2.599-.34 6.724 2.543 7.74v.171h-10.793v-.17c2.882-1.017 2.486-5.198 2.486-7.74V9.321c0-2.6.396-6.723-2.486-7.798v-.168h13.448z"/>
        <path d="M206.337 6.158l-5.594 14.24h11.132l-5.538-14.24zm-7.063 18.421l-2.94 7.968c-1.185 3.165-1.581 4.803 1.131 5.82v.17h-10.397v-.17c3.278-1.638 4.238-4.803 5.48-8.024l9.438-23.564c.792-2.033 1.865-4.407-.847-5.255v-.168h8.928l11.754 28.987c1.298 3.22 2.315 6.386 5.537 8.024v.17h-11.584v-.17c2.769-1.243 2.318-1.864.791-5.82l-3.051-7.968h-14.24zM174.052 100.062c.493.015.836-.104.836-.67 0-.577-.627-.577-1.057-.577h-1.08v1.247h1.301zm1.574 2.553h-1.018l-.987-1.888h-.87v1.888h-.868v-4.458h2.146c.38 0 .872.006 1.205.22.401.258.529.69.529 1.153 0 .805-.431 1.142-1.218 1.197l1.08 1.888zm1.292-2.256a3.33 3.33 0 0 0-3.34-3.334 3.338 3.338 0 0 0-3.357 3.334 3.347 3.347 0 0 0 3.358 3.358 3.339 3.339 0 0 0 3.339-3.358zm-7.472 0a4.124 4.124 0 1 1 8.247.02 4.124 4.124 0 0 1-8.247-.02zM85.624 74.74l2.526-1.482a.479.479 0 0 1 .453 0l2.525 1.482c.144.076.229.227.229.395v2.966c0 .16-.085.316-.23.392l-2.524 1.483a.486.486 0 0 1-.453 0l-2.526-1.483a.45.45 0 0 1-.223-.392v-2.966c0-.168.085-.319.223-.395M157.922 83.735h3.37c.102 0 .187.09.187.202v2.456s0 1.19-1.17 1.232h-2.417c-.06 0-.078.027-.078.109v9.82c0 2.495-.084 3.193 2.375 3.193.934 0 1.29.652 1.254 1.633-.037.73-.067 1.367-.139 1.88-.012.089-.09.155-.194.155-6.43-.008-7.931-.901-7.931-6.694V78.834c0-.105.084-.211.198-.211h3.062c.73 0 1.375.407 1.375 1.396v3.61c0 .093.017.106.108.106M70.554 105.467c-.162 0-.24-.175-.32-.325-.077-.148-9.433-18.628-10.571-20.865-.055-.109.024-.232.132-.232h4.196c.481 0 1.048.244 1.36.988 0 0 4.86 10.106 4.896 10.178.115.248.204.48.307.48.104 0 .188-.227.308-.48.042-.072 4.894-10.178 4.894-10.178.325-.744.886-.988 1.369-.988h4.189c.113 0 .192.123.132.232-1.127 2.237-10.494 20.717-10.566 20.865-.084.168-.15.325-.326.325M86.768 104.491c-.729 0-1.367-.407-1.367-1.399V84.26c0-.12.084-.214.198-.214h3.014c.735 0 1.435.414 1.435 1.392v18.84a.214.214 0 0 1-.212.214h-3.068zM105.216 98.322c-.247.32-2.616 3.474-4.045 5.19-.85 1.01-1.488.98-2.537.98H95.04c-.12 0-.198-.149-.12-.257l7.873-9.83c.017-.028.065-.074.065-.097 0-.012-.048-.066-.065-.088l-7.56-9.919c-.078-.101-.006-.256.12-.256h3.641c1.05 0 1.695-.035 2.501.988.621.77 2.617 3.796 3.738 5.297.302.397.404.633.49.633.095 0 .204-.239.5-.633 1.126-1.501 3.114-4.527 3.735-5.297.808-1.023 1.448-.988 2.503-.988h3.64c.132 0 .205.155.12.256l-7.552 9.92a.438.438 0 0 0-.084.087c0 .02.06.07.084.096l7.866 9.831c.08.108.006.256-.12.256h-3.592c-1.05 0-1.695.03-2.538-.98-1.429-1.715-3.804-4.869-4.05-5.189-.483-.626-.441-.663-.513-.663-.066 0-.024.037-.507.663M122.02 105.224c-.73 0-1.375-.406-1.375-1.398V74.74c0-.093.079-.184.175-.184h3.105c.723 0 1.369.41 1.369 1.395l-.013 29.096c0 .09-.078.177-.174.177h-3.087zM138.57 84.047c-5.883.121-9.91 5.187-9.789 10.712.114 5.844 4.19 10.216 9.952 10.289 3.242.045 5.804-.818 8.12-2.893a.386.386 0 0 0 .077-.483 26.128 26.128 0 0 0-1.29-2.182c-.277-.419-.85-.7-1.65-.047-.007.008-.013.008-.02.008-1.843 1.305-3.14 1.682-5.195 1.554-2.514-.146-4.822-2.269-5.256-4.888-.005-.06-.03-.195.09-.195h13.779c.187 0 .362-.123.386-.313.917-6.516-2.695-11.688-9.204-11.562m-5.016 8.11c.44-2.67 2.798-4.15 5.058-4.267 2.544-.105 5.117 1.718 4.974 4.231 0 .076-.067.212-.145.212h-9.808c-.09 0-.084-.145-.079-.175M92.404 52.867c-1.063 0-2.168.58-2.796 1.186v-.992h-1.496v7.95h1.496v-5.636c.417-.559 1.375-1.113 2.318-1.113 1.075 0 1.619.637 1.619 1.418v5.331h1.496v-5.71c0-1.668-1.081-2.434-2.637-2.434M114.31 58.726l-1.934-5.768-.03-.09h-1.241l-1.963 5.858-1.822-5.767-.028-.092h-1.558l2.588 7.86.028.09h1.425l1.95-6.174 1.951 6.174h1.425l2.616-7.95h-1.559zM101.54 59.817c-1.73 0-2.394-1.358-2.394-2.777 0-1.42.664-2.78 2.394-2.78 1.719 0 2.378 1.36 2.378 2.78 0 1.419-.66 2.777-2.378 2.777m0-6.95c-2.355 0-3.94 1.674-3.94 4.173 0 2.496 1.585 4.17 3.94 4.17s3.938-1.674 3.938-4.17c0-2.499-1.583-4.173-3.938-4.173M137.137 52.867c-1.063 0-2.167.442-2.796 1.048v-.854h-1.496v7.95h1.496v-5.774c.417-.559 1.376-.975 2.319-.975 1.075 0 1.619.637 1.619 1.418v5.331h1.496v-5.71c0-1.668-1.082-2.434-2.638-2.434M127.296 59.817c-1.73 0-2.394-1.358-2.394-2.777 0-1.42.664-2.78 2.394-2.78 1.719 0 2.377 1.36 2.377 2.78 0 1.419-.658 2.777-2.377 2.777m0-6.95c-2.355 0-3.94 1.674-3.94 4.173 0 2.496 1.585 4.17 3.94 4.17 2.354 0 3.938-1.674 3.938-4.17 0-2.499-1.584-4.173-3.938-4.173"/>
    </g>
</svg>
