<svg viewBox="0 0 290 49" xmlns="http://www.w3.org/2000/svg" xmlns:xlink="http://www.w3.org/1999/xlink">
    <defs>
        <path id="a" d="M.844 17.313h13.015V.432H.844v16.881z"/>
    </defs>
    <g fill="none" fill-rule="evenodd">
        <path d="M7.683 13.766a2.944 2.944 0 0 0 1.298 3.181H4.025c1.256-.476 1.104-2.294 1.104-3.42V2.383H2.965A4.322 4.322 0 0 0 0 3.378L.866.413c.31.095.63.154.952.173h9.933c.39.024.782-.035 1.148-.173l-.801 2.965a2.168 2.168 0 0 0-2.164-.996H7.769v11.384h-.086zM14.998.564a1.954 1.954 0 0 0 1.515-.39v6.493a4.733 4.733 0 0 1 3.679-1.58A3.853 3.853 0 0 1 24.52 9.59v4.545a2.467 2.467 0 0 0 .952 2.705h-4.155a2.466 2.466 0 0 0 .93-2.705v-3.787c0-2.035-.648-3.593-2.791-3.593s-2.878 1.234-2.878 3.441v3.939a2.467 2.467 0 0 0 .952 2.705h-4.177a2.49 2.49 0 0 0 .952-2.705V3.313a2.49 2.49 0 0 0-.952-2.705h1.623l.022-.044zM35.73 9.416a2.878 2.878 0 0 0-3.224-2.576 3.116 3.116 0 0 0-3.225 2.576h6.493-.043zm-6.492 1.45a4.675 4.675 0 0 0 5 4.826 6.493 6.493 0 0 0 4.09-1.32l-1.169 2.402a8.957 8.957 0 0 1-3.441.628c-4.328 0-7.164-2.684-7.164-6.147A5.865 5.865 0 0 1 32.81 5.26a5.369 5.369 0 0 1 5.627 5.67H29.26l-.022-.064zM49.322 8.615a6.774 6.774 0 0 0 6.436 7.097l.056.002a6.06 6.06 0 0 0 6.211-6.493 6.642 6.642 0 0 0-6.276-7.163 6.167 6.167 0 0 0-6.427 6.449v.108zm15.474 0a8.917 8.917 0 0 1-9.042 8.791l-.156-.004a8.658 8.658 0 0 1-9.111-8.657c.112-4.9 4.174-8.78 9.072-8.668.1.003.199.005.298.011a8.655 8.655 0 0 1 8.934 8.37c.002.053.005.105.005.157zM69.643 13.376a3.682 3.682 0 0 0 1.082 3.55h-4.328c.86-.6 1.242-1.678.952-2.684V7.144h-1.255l1.255-1.645v-.606a3.96 3.96 0 0 1 .93-3.268A5.604 5.604 0 0 1 72.717.023l1.71.152L72.673 2.1a2.157 2.157 0 0 0-1.277-.433c-1.471 0-1.774.693-1.774 2.164v1.645h2.9l.432-.151V7.49a.974.974 0 0 0-.93-.39h-2.402v6.233l.021.043zM82.087 5.52a3.958 3.958 0 0 0 2.164-.324v9.068a2.446 2.446 0 0 0 .953 2.683h-4.177c.859-.6 1.242-1.677.952-2.683V8.269c0-1.082-.151-1.104-1.233-1.104h-3.139v7.099a2.444 2.444 0 0 0 .974 2.683h-4.068a2.446 2.446 0 0 0 .93-2.683V7.165H74.21l1.233-1.645v-.497a4.323 4.323 0 0 1 .91-3.398 5.235 5.235 0 0 1 4.133-1.58c2.38 0 4.068 1.017 4.068 2.38a1.341 1.341 0 0 1-1.428 1.45 1.213 1.213 0 0 1-1.233-1.19c.004-.22.062-.437.173-.627a6.486 6.486 0 0 0-1.97-.347c-1.84 0-2.359.433-2.359 2.381v1.45h4.329l.021-.022zM96.241 8.117a4.108 4.108 0 0 0-3.051-1.233 3.981 3.981 0 0 0-4.173 3.78c-.004.096-.006.193-.004.288a4.913 4.913 0 0 0 5.194 4.783 6.485 6.485 0 0 0 3.657-1.233l-1.298 2.38a9.292 9.292 0 0 1-3.29.498 6.297 6.297 0 0 1-6.839-5.778c0-4.329 3.355-6.363 7.12-6.363.912 0 1.818.102 2.706.303v2.575h-.022zM100.18 4.027a1.6 1.6 0 0 1-1.623-1.58v-.065A1.559 1.559 0 0 1 100.18.911c.84.023 1.506.718 1.493 1.558a1.559 1.559 0 0 1-1.493 1.536v.022zm-.476 1.493c.571.07 1.147-.069 1.623-.39v9.112a2.467 2.467 0 0 0 .952 2.705h-4.177a2.49 2.49 0 0 0 .952-2.705V8.269a2.446 2.446 0 0 0-.952-2.684h1.515l.087-.065zM114.485 17.337c-1.645 0-3.29-.606-3.29-2.597V10.8c-.768.353-1.573.615-2.402.78-1.19.28-2.553.54-2.553 2.163a2.273 2.273 0 0 0 2.726 2.056 6.521 6.521 0 0 0 1.797-.346l-1.472 1.883a7.7 7.7 0 0 1-1.298.13 3.873 3.873 0 0 1-4.329-3.68c0-4.652 7.467-2.488 7.467-5.215a2.163 2.163 0 0 0-2.403-1.602 7.758 7.758 0 0 0-3.397.996l1.666-2.489 1.623-.151c2.705 0 4.74.779 4.761 3.809v3.744c0 1.969 0 2.726 2.165 2.943l-1.06 1.515zM117.666.564a2.165 2.165 0 0 0 1.602-.39v14.068a2.466 2.466 0 0 0 .93 2.705h-4.111a2.51 2.51 0 0 0 .93-2.705V3.422a2.51 2.51 0 0 0-.93-2.706h1.514l.065-.152zM139.027 3.53a5.692 5.692 0 0 0-3.917-1.58 2.747 2.747 0 0 0-3.225 2.272c0 3.42 8.657 3.376 8.657 7.986 0 2.683-2.792 5.172-6.688 5.172a13.002 13.002 0 0 1-4.48-.757l-.714-3.117a8.662 8.662 0 0 0 5.476 2.164c1.428 0 3.57-.844 3.57-2.597 0-3.895-8.656-3.203-8.656-8.505 0-3.138 3.225-4.328 6.276-4.328a12.528 12.528 0 0 1 3.723.54v2.814l-.022-.065zM152.207 11.667a4.328 4.328 0 0 0-3.982-4.826 3.828 3.828 0 0 0-3.831 4.068 4.328 4.328 0 0 0 3.83 4.774l.087.009a3.83 3.83 0 0 0 3.896-4.025zm-10.323-.303a6.233 6.233 0 0 1 6.622-6.168 5.994 5.994 0 0 1 6.211 5.951 6.297 6.297 0 0 1-6.401 6.192l-.091-.002a6.04 6.04 0 0 1-6.341-5.973zM166.057 8.117a4.108 4.108 0 0 0-3.051-1.233 3.981 3.981 0 0 0-4.173 3.78c-.004.096-.006.193-.004.288a4.913 4.913 0 0 0 5.034 4.79l.16-.007a6.485 6.485 0 0 0 3.658-1.233l-1.299 2.38a9.292 9.292 0 0 1-3.29.498 6.297 6.297 0 0 1-6.838-5.778c0-4.329 3.354-6.363 7.12-6.363.911 0 1.818.102 2.705.303v2.575h-.022zM170.364 4.027a1.6 1.6 0 0 1-1.623-1.58v-.065a1.559 1.559 0 0 1 1.623-1.471c.84.023 1.506.718 1.493 1.558a1.558 1.558 0 0 1-1.471 1.536l-.022.022zm-.476 1.493c.571.07 1.147-.069 1.623-.39v9.112a2.467 2.467 0 0 0 .952 2.705h-4.176a2.49 2.49 0 0 0 .952-2.705V8.269a2.446 2.446 0 0 0-.952-2.684h1.514l.087-.065zM184.67 17.337c-1.645 0-3.29-.606-3.29-2.597V10.8c-.768.353-1.574.615-2.402.78-1.19.28-2.554.54-2.554 2.163a2.273 2.273 0 0 0 2.727 2.056 6.521 6.521 0 0 0 1.796-.346l-1.472 1.883a7.7 7.7 0 0 1-1.298.13 3.873 3.873 0 0 1-4.328-3.68c0-4.652 7.466-2.488 7.466-5.215a2.163 2.163 0 0 0-2.402-1.602 7.758 7.758 0 0 0-3.398.996l1.666-2.489 1.623-.151c2.706 0 4.74.779 4.762 3.809v3.744c0 1.969 0 2.726 2.164 2.943l-1.06 1.515zM187.85.564a2.165 2.165 0 0 0 1.602-.39v14.068a2.466 2.466 0 0 0 .93 2.705h-4.133a2.51 2.51 0 0 0 .93-2.705V3.422a2.51 2.51 0 0 0-.93-2.706h1.515l.087-.152zM205.705.564c3.246 0 5.714 1.58 5.714 4.329a5.086 5.086 0 0 1-5.443 4.7l-.054-.004a4.202 4.202 0 0 1-1.818-.346 4.329 4.329 0 0 0 4.48-3.852 3.028 3.028 0 0 0-3.55-3.074c-.588 0-1.175.05-1.753.152v11.275a2.897 2.897 0 0 0 1.299 3.138h-4.978c1.277-.454 1.126-2.294 1.126-3.42V4.05c0-1.126.151-2.944-1.104-3.441h6.081V.564zM222.023 11.667a4.328 4.328 0 0 0-3.982-4.826 3.828 3.828 0 0 0-3.83 4.068 4.328 4.328 0 0 0 3.83 4.774l.087.009a3.83 3.83 0 0 0 3.895-4.025zm-10.323-.303a6.233 6.233 0 0 1 6.622-6.168 5.994 5.994 0 0 1 6.233 5.951 6.297 6.297 0 0 1-6.401 6.192l-.091-.002a6.037 6.037 0 0 1-6.363-5.973zM227.65 5.52a2.429 2.429 0 0 0 1.515-.324V7.1a3.335 3.335 0 0 1 2.943-1.904h.91V7.49a1.557 1.557 0 0 0-1.148-.39c-1.904 0-2.705.996-2.705 3.571v3.506a2.467 2.467 0 0 0 .952 2.705h-4.177a2.49 2.49 0 0 0 .953-2.705V8.204a2.465 2.465 0 0 0-.931-2.684h1.688zM238.125 12.164c0 .953-.303 3.528 2.38 3.528.344-.024.682-.113.996-.26l-1.32 1.775c-.26.082-.528.125-.801.13-3.874 0-3.528-4.004-3.528-4.978V7.165h-1.688v-.909c2.36-.39 2.965-2.164 2.965-4.48h.996V5.5h2.359c.324.03.653-.022.952-.152V7.62a2.167 2.167 0 0 0-1.796-.476h-1.515v5.02zM252.863 17.337c-1.645 0-3.29-.606-3.29-2.597V10.8c-.768.353-1.573.615-2.402.78-1.19.28-2.554.54-2.554 2.163a2.294 2.294 0 0 0 2.727 2.056 6.521 6.521 0 0 0 1.796-.346l-1.471 1.883a7.7 7.7 0 0 1-1.299.13 3.873 3.873 0 0 1-4.328-3.68c0-4.652 7.466-2.488 7.466-5.215a2.163 2.163 0 0 0-2.402-1.602 7.758 7.758 0 0 0-3.398.996l1.667-2.489 1.623-.151c2.705 0 4.74.779 4.783 3.809v3.744c0 1.969 0 2.726 2.164 2.943l-1.082 1.515zM256.022.564a2.165 2.165 0 0 0 1.602-.39v14.068a2.466 2.466 0 0 0 .93 2.705h-4.111a2.51 2.51 0 0 0 .93-2.705V3.422a2.51 2.51 0 0 0-.93-2.706h1.514l.065-.152zM277.6 11.667a4.328 4.328 0 0 0-3.983-4.826 3.828 3.828 0 0 0-3.837 3.824c-.002.08.002.162.007.244a4.328 4.328 0 0 0 3.83 4.774l.087.009a3.83 3.83 0 0 0 3.895-4.025zm-10.324-.303a6.233 6.233 0 0 1 6.623-6.168 5.994 5.994 0 0 1 6.232 5.951 6.297 6.297 0 0 1-6.401 6.192l-.091-.002a6.037 6.037 0 0 1-6.363-5.973zM284.828 13.376a3.682 3.682 0 0 0 1.082 3.55h-4.329c.86-.6 1.243-1.678.953-2.684V7.144h-1.256l1.256-1.645v-.606a3.983 3.983 0 0 1 .93-3.268 5.606 5.606 0 0 1 4.458-1.602l1.688.152-1.753 1.926a2.157 2.157 0 0 0-1.276-.433c-1.472 0-1.775.693-1.775 2.164v1.645h2.9l.433-.151V7.49a.974.974 0 0 0-.93-.39h-2.403v6.233l.022.043zM85.074 41.749a6.145 6.145 0 0 0 4.328-1.515l-1.298 3.333h-10.28c1.277-.455 1.125-2.294 1.125-3.42v-9.522c0-1.147.152-2.965-1.125-3.441h4.783c-1.277.476-1.104 2.315-1.104 3.44v10.822l3.57.303zM92.735 30.56a1.6 1.6 0 0 1-1.623-1.58v-.065a1.559 1.559 0 0 1 1.623-1.471c.84.023 1.506.718 1.493 1.558 0 .835-.658 1.523-1.493 1.558zm-.476 1.493c.571.07 1.147-.069 1.623-.39v9.112a2.49 2.49 0 0 0 .952 2.705h-4.09a2.467 2.467 0 0 0 .952-2.705v-5.973a2.446 2.446 0 0 0-.952-2.684h1.515v-.065zM96.609 32.053a3.613 3.613 0 0 0 2.056-.303c.065.435.197.86.39 1.255l3.614 8.073 2.878-6.168c.498-1.039 1.039-2.164-.281-2.77h3.549L103.296 44a4.895 4.895 0 0 1-2.727-2.598l-3.03-6.492a3.982 3.982 0 0 0-2.164-2.684h1.342l-.108-.173zM118.597 35.949a2.878 2.878 0 0 0-3.225-2.576 3.116 3.116 0 0 0-3.224 2.576h6.492-.043zm-6.493 1.45a4.675 4.675 0 0 0 5 4.826 6.493 6.493 0 0 0 4.09-1.32l-1.255 2.359a8.957 8.957 0 0 1-3.441.627c-4.329 0-7.164-2.683-7.164-6.146a5.865 5.865 0 0 1 6.255-5.995 5.369 5.369 0 0 1 5.627 5.67h-9.176l.064-.021zM124.31 32.053a2.429 2.429 0 0 0 1.515-.324v1.904a3.335 3.335 0 0 1 2.944-1.904h.909v2.359a1.557 1.557 0 0 0-1.147-.39c-1.905 0-2.706.996-2.706 3.57v3.507a2.467 2.467 0 0 0 .953 2.705h-4.004a2.49 2.49 0 0 0 .952-2.705v-5.973a2.465 2.465 0 0 0-.93-2.684h1.601l-.087-.065z" fill="#FFF"/>
        <g transform="translate(129.85 31.296)">
            <mask id="b" fill="#fff">
                <use xlink:href="#a"/>
            </mask>
            <path d="M2.554.758A2.57 2.57 0 0 0 4.047.433v1.775A5.367 5.367 0 0 1 8.137.433a5.65 5.65 0 0 1 5.714 5.952 5.973 5.973 0 0 1-5.753 6.185c-.088.004-.175.004-.264.004a5.088 5.088 0 0 1-1.84-.325l-1.341-2.056a6.212 6.212 0 0 0 2.727.715 3.808 3.808 0 0 0 3.982-4.329 3.98 3.98 0 0 0-3.83-4.48 3.743 3.743 0 0 0-2.77 1.19 3.511 3.511 0 0 0-.693 2.684v8.657a2.446 2.446 0 0 0 .952 2.684H.844c.86-.6 1.242-1.678.952-2.684V3.506A2.422 2.422 0 0 0 .844.823h1.645l.065-.065z" fill="#FFF" mask="url(#b)"/>
        </g>
        <path d="M155.648 38.2a4.328 4.328 0 0 0-3.982-4.827 3.828 3.828 0 0 0-3.83 4.069 4.328 4.328 0 0 0 3.83 4.774l.086.009a3.83 3.83 0 0 0 3.896-4.026zm-10.323-.303a6.233 6.233 0 0 1 6.622-6.168 5.994 5.994 0 0 1 6.233 5.951 6.297 6.297 0 0 1-6.402 6.192l-.09-.002a6.037 6.037 0 0 1-6.363-5.973zM169.628 38.2a4.328 4.328 0 0 0-3.982-4.827 3.828 3.828 0 0 0-3.83 4.069 4.328 4.328 0 0 0 3.83 4.774l.087.009a3.83 3.83 0 0 0 3.895-4.026zm-10.323-.303a6.233 6.233 0 0 1 6.623-6.168 5.994 5.994 0 0 1 6.232 5.951 6.297 6.297 0 0 1-6.401 6.192l-.091-.002a6.037 6.037 0 0 1-6.363-5.973zM175.039 27.097a2.165 2.165 0 0 0 1.601-.39v14.068a2.466 2.466 0 0 0 .93 2.705h-4.133a2.51 2.51 0 0 0 .93-2.705V29.954a2.51 2.51 0 0 0-.93-2.705h1.515l.087-.152zM190.253 40.039c0 1.125-.195 2.943 1.06 3.42h-4.717c1.276-.455 1.125-2.295 1.125-3.42v-9.414c0-1.147.151-2.965-1.125-3.441h7.985c.394.047.795.004 1.169-.13v2.9a3.572 3.572 0 0 0-2.943-.974c-.855-.02-1.71.039-2.554.173v4.653h3.008c.368.03.738-.021 1.082-.151v2.597a2.343 2.343 0 0 0-2.164-.693h-1.84v4.523l-.086-.043zM210.142 30.192a8.665 8.665 0 0 0-4.632-1.428 5.734 5.734 0 0 0-5.843 6.146 6.492 6.492 0 0 0 6.341 6.947 11.017 11.017 0 0 0 5.324-1.58l-1.277 2.9a8.838 8.838 0 0 1-3.765.758c-5.887 0-9.544-3.29-9.544-8.657a8.27 8.27 0 0 1 8.764-8.657c1.535.035 3.058.245 4.545.628v2.878l.087.065z" fill="#FFF"/>
    </g>
</svg>
